<svg xmlns="http://www.w3.org/2000/svg" version="1.1" xmlns:xlink="http://www.w3.org/1999/xlink" xmlns:svgjs="http://svgjs.dev/svgjs" width="1920" height="1080" preserveAspectRatio="none" viewBox="0 0 1920 1080"><g mask="url(&quot;#SvgjsMask1146&quot;)" fill="none"><rect width="1920" height="1080" x="0" y="0" fill="rgba(231, 240, 250, 1)"></rect><path d="M-112.45407685048609 235.27922061357845L200.505890867172 319.1365912267953 284.36326148038887 6.176623509137187-28.596706237269245-77.68074710407967z" fill="rgba(169, 201, 195, 0.31)" class="triangle-float3"></path><path d="M-15.412381221837563-114.64182931595724L-104.7188845065453 196.80696016805808 296.03640826217776-25.335326031249508z" fill="rgba(169, 201, 195, 0.31)" class="triangle-float2"></path><path d="M-246.33 102.33 a348.66 348.66 0 1 0 697.32 0 a348.66 348.66 0 1 0 -697.32 0z" fill="rgba(169, 201, 195, 0.31)" class="triangle-float1"></path><path d="M2063.4244044001357 68.1782864251546L1801.3028982226529-122.26413531760667 1610.8604764798915 139.85737085987628 1872.9819826573744 330.2997926026376z" fill="rgba(169, 201, 195, 0.31)" class="triangle-float2"></path><path d="M1945.52,495.317C2046.128,499.571,2157.143,479.973,2208.227,393.194C2259.822,305.548,2224.767,197.703,2171.841,110.854C2121.49,28.23,2042.254,-35.809,1945.52,-37.896C1845.321,-40.058,1750.115,12.997,1701.629,100.71C1654.562,185.857,1667.514,289.737,1718.664,372.496C1767.119,450.894,1853.438,491.424,1945.52,495.317" fill="rgba(169, 201, 195, 0.31)" class="triangle-float1"></path><path d="M1799.1469898142393 301.43939652812384L2004.5751973339925 234.69172574313518 1801.739587396633-40.07675014400019z" fill="rgba(169, 201, 195, 0.31)" class="triangle-float1"></path><path d="M-132.24 852.24 a120.48 120.48 0 1 0 240.96 0 a120.48 120.48 0 1 0 -240.96 0z" fill="rgba(169, 201, 195, 0.31)" class="triangle-float1"></path><path d="M-126.28 846.27 a108.55 108.55 0 1 0 217.1 0 a108.55 108.55 0 1 0 -217.1 0z" fill="rgba(169, 201, 195, 0.31)" class="triangle-float3"></path><path d="M187.415,1283.821C269.293,1286.358,342.542,1235.567,383.171,1164.435C423.461,1093.896,424.631,1008.241,385.472,937.067C344.82,863.178,271.744,809.593,187.415,808.633C101.543,807.656,20.449,855.985,-18.608,932.468C-54.763,1003.268,-28.611,1084.345,11.601,1152.922C51.212,1220.475,109.143,1281.396,187.415,1283.821" fill="rgba(169, 201, 195, 0.31)" class="triangle-float1"></path><path d="M1863.824,1220.69C1935.648,1221.956,2007.861,1189.871,2041.381,1126.336C2073.196,1066.033,2050.36,994.745,2013.184,937.591C1979.781,886.238,1924.905,858.055,1863.824,853.363C1791.309,847.792,1707.202,849.471,1668.618,911.122C1628.621,975.032,1656.574,1056.488,1696.788,1120.262C1733.929,1179.162,1794.203,1219.463,1863.824,1220.69" fill="rgba(169, 201, 195, 0.31)" class="triangle-float2"></path><path d="M1804.5626771966233 778.2767793228742L1607.2368583458215 866.131894227247 1837.6824401277815 1118.1930650512634z" fill="rgba(169, 201, 195, 0.31)" class="triangle-float2"></path><path d="M1793.65,1086.889C1845.333,1086.967,1900.184,1074.824,1926.907,1030.586C1954.358,985.143,1947.139,926.167,1917.237,882.298C1890.616,843.242,1840.915,834.81,1793.65,835.083C1747.016,835.352,1698.722,845.138,1672.513,883.712C1643.015,927.127,1634.211,985.101,1661.09,1030.184C1687.468,1074.427,1742.14,1086.811,1793.65,1086.889" fill="rgba(169, 201, 195, 0.31)" class="triangle-float2"></path></g><defs><mask id="SvgjsMask1146"><rect width="1920" height="1080" fill="#ffffff"></rect></mask><style>
                @keyframes float1 {
                    0%{transform: translate(0, 0)}
                    50%{transform: translate(-10px, 0)}
                    100%{transform: translate(0, 0)}
                }

                .triangle-float1 {
                    animation: float1 5s infinite;
                }

                @keyframes float2 {
                    0%{transform: translate(0, 0)}
                    50%{transform: translate(-5px, -5px)}
                    100%{transform: translate(0, 0)}
                }

                .triangle-float2 {
                    animation: float2 4s infinite;
                }

                @keyframes float3 {
                    0%{transform: translate(0, 0)}
                    50%{transform: translate(0, -10px)}
                    100%{transform: translate(0, 0)}
                }

                .triangle-float3 {
                    animation: float3 6s infinite;
                }
            </style></defs></svg>